<?xml version="1.0" standalone="no"?>
<!DOCTYPE svg PUBLIC "-//W3C//DTD SVG 20010904//EN"
 "http://www.w3.org/TR/2001/REC-SVG-20010904/DTD/svg10.dtd">
<svg version="1.0" xmlns="http://www.w3.org/2000/svg"
 width="512.000000pt" height="512.000000pt" viewBox="0 0 512.000000 512.000000"
 preserveAspectRatio="xMidYMid meet">
<metadata>
Created by potrace 1.14, written by Peter Selinger 2001-2017
</metadata>
<g transform="translate(0.000000,512.000000) scale(0.100000,-0.100000)"
fill="#000000" stroke="none">
<path d="M0 2560 l0 -2560 2560 0 2560 0 0 2560 0 2560 -2560 0 -2560 0 0
-2560z m2915 1780 c761 -162 1326 -757 1440 -1515 19 -130 19 -400 0 -530 -29
-193 -78 -350 -165 -530 -262 -539 -769 -910 -1365 -1000 -130 -19 -400 -19
-530 0 -679 102 -1240 573 -1454 1220 -73 220 -85 298 -85 565 -1 253 8 327
59 505 185 642 696 1126 1345 1274 152 35 212 40 440 36 172 -3 235 -8 315
-25z"/>
</g>
</svg>
